<?xml version="1.0" encoding="utf-8"?>
<!-- Generator: Adobe Illustrator 19.0.0, SVG Export Plug-In . SVG Version: 6.00 Build 0)  -->
<svg version="1.1" id="Layer_1" xmlns="http://www.w3.org/2000/svg" xmlns:xlink="http://www.w3.org/1999/xlink" x="0px" y="0px"
	 viewBox="0 0 449.2 476" style="enable-background:new 0 0 449.2 476;" xml:space="preserve">
<g id="Layer_1">
	<g id="XMLID_160_">
		<g id="XMLID_172_">
			<g id="XMLID_179_">
				<rect id="XMLID_180_" x="20.9" y="237" width="421.3" height="25"/>
			</g>
			<g id="XMLID_177_">
				
					<rect id="XMLID_178_" x="300.5" y="247.9" transform="matrix(-0.9854 0.1702 -0.1702 -0.9854 682.9456 664.8516)" width="25" height="227.6"/>
			</g>
			<g id="XMLID_173_">
				<path id="XMLID_174_" d="M207.6,460.6h33.9c55.2,0,107.3-21.7,146.7-61c39.3-39.3,61-91.4,61-146.7v-45.3
					c0-55.2-21.7-107.3-61-146.7C348.9,21.7,296.8,0,241.6,0h-33.9C152.4,0,100.3,21.7,61,61C21.7,100.3,0,152.4,0,207.6V253
					c0,55.2,21.7,107.3,61,146.7C100.3,438.9,152.4,460.6,207.6,460.6z M241.6,27c99.6,0,180.6,81,180.6,180.6V253
					c0,99.6-81,180.6-180.6,180.6h-33.9C108,433.6,27,352.6,27,253v-45.3C27,108,108,27,207.6,27H241.6z"/>
			</g>
		</g>
	</g>
	<g id="XMLID_126_">
		<g id="XMLID_138_">
			<g id="XMLID_145_">
				<rect id="XMLID_146_" x="7" y="237" width="421.3" height="25"/>
			</g>
			<g id="XMLID_143_">
				
					<rect id="XMLID_144_" x="123.7" y="247.9" transform="matrix(0.9854 0.1702 -0.1702 0.9854 63.5639 -17.9116)" width="25" height="227.6"/>
			</g>
			<g id="XMLID_139_">
				<path id="XMLID_140_" d="M241.6,460.6h-33.9c-55.2,0-107.3-21.7-146.7-61C21.7,360.3,0,308.2,0,253v-45.3
					C0,152.4,21.7,100.3,61,61c39.3-39.3,91.4-61,146.7-61h33.9c55.2,0,107.3,21.7,146.7,61c39.3,39.3,61,91.4,61,146.7V253
					c0,55.2-21.7,107.3-61,146.7C348.9,438.9,296.8,460.6,241.6,460.6z M207.6,27C108,27,27,108,27,207.6V253
					c0,99.6,81,180.6,180.6,180.6h33.9c99.6,0,180.6-81,180.6-180.6v-45.3c0-99.6-81-180.6-180.6-180.6H207.6z"/>
			</g>
		</g>
	</g>
</g>
</svg>
